{"glyphs":{"0":{"ha":711,"x_min":0,"x_max":0,"o":"m 546 762 l 546 857 l 165 857 l 165 762 l 69 762 l 69 95 l 165 95 l 165 0 l 546 0 l 546 95 l 641 95 l 641 762 z m 451 762 l 451 571 l 355 571 l 355 476 l 260 476 l 260 762 z m 260 95 l 260 286 l 355 286 l 355 381 l 451 381 l 451 95 z "},"1":{"ha":424,"x_min":0,"x_max":0,"o":"m 165 857 l 165 762 l 69 762 l 69 667 l 165 667 l 165 0 l 355 0 l 355 857 z "},"2":{"ha":710,"x_min":0,"x_max":0,"o":"m 546 762 l 546 857 l 165 857 l 165 762 l 451 762 l 451 476 l 355 476 l 355 381 l 260 381 l 260 286 l 165 286 l 165 190 l 69 190 l 69 0 l 641 0 l 641 95 l 260 95 l 260 190 l 355 190 l 355 286 l 451 286 l 451 381 l 546 381 l 546 476 l 641 476 l 641 762 z m 165 667 l 165 762 l 69 762 l 69 667 z "},"3":{"ha":711,"x_min":0,"x_max":0,"o":"m 546 667 l 546 762 l 641 762 l 641 857 l 69 857 l 69 762 l 355 762 l 355 667 l 260 667 l 260 571 l 165 571 l 165 476 l 451 476 l 451 95 l 165 95 l 165 0 l 546 0 l 546 95 l 641 95 l 641 476 l 546 476 l 546 571 l 451 571 l 451 667 z m 165 95 l 165 190 l 69 190 l 69 95 z "},"4":{"ha":806,"x_min":0,"x_max":0,"o":"m 641 381 l 641 857 l 451 857 l 451 762 l 355 762 l 355 667 l 451 667 l 451 381 l 165 381 l 165 476 l 69 476 l 69 286 l 451 286 l 451 0 l 641 0 l 641 286 l 736 286 l 736 381 z m 355 571 l 355 667 l 260 667 l 260 571 z m 260 476 l 260 571 l 165 571 l 165 476 z "},"5":{"ha":710,"x_min":0,"x_max":0,"o":"m 260 762 l 641 762 l 641 857 l 69 857 l 69 476 l 451 476 l 451 95 l 165 95 l 165 0 l 546 0 l 546 95 l 641 95 l 641 476 l 546 476 l 546 571 l 260 571 z m 165 95 l 165 190 l 69 190 l 69 95 z "},"6":{"ha":710,"x_min":0,"x_max":0,"o":"m 546 476 l 546 571 l 260 571 l 260 667 l 355 667 l 355 762 l 546 762 l 546 857 l 260 857 l 260 762 l 165 762 l 165 667 l 69 667 l 69 95 l 165 95 l 165 0 l 546 0 l 546 95 l 641 95 l 641 476 z m 260 95 l 260 476 l 451 476 l 451 95 z "},"7":{"ha":710,"x_min":0,"x_max":0,"o":"m 69 857 l 69 762 l 451 762 l 451 476 l 355 476 l 355 381 l 260 381 l 260 0 l 451 0 l 451 381 l 546 381 l 546 476 l 641 476 l 641 857 z "},"8":{"ha":710,"x_min":0,"x_max":0,"o":"m 546 762 l 546 857 l 165 857 l 165 762 l 69 762 l 69 571 l 165 571 l 165 476 l 69 476 l 69 95 l 165 95 l 165 0 l 546 0 l 546 95 l 641 95 l 641 476 l 546 476 l 546 571 l 641 571 l 641 762 z m 450 95 l 260 95 l 260 476 l 450 476 z m 260 571 l 260 762 l 450 762 l 450 571 z "},"9":{"ha":710,"x_min":0,"x_max":0,"o":"m 546 762 l 546 857 l 165 857 l 165 762 l 69 762 l 69 381 l 165 381 l 165 286 l 451 286 l 451 190 l 355 190 l 355 95 l 165 95 l 165 0 l 451 0 l 451 95 l 546 95 l 546 190 l 641 190 l 641 762 z m 260 381 l 260 762 l 451 762 l 451 381 z "},"\u0000":{"ha":0,"x_min":0,"x_max":0,"o":""},"\n":{"ha":0,"x_min":0,"x_max":0,"o":""},"\r":{"ha":0,"x_min":0,"x_max":0,"o":""}," ":{"ha":342,"x_min":0,"x_max":0,"o":""},"!":{"ha":329,"x_min":0,"x_max":0,"o":"m 69 857 l 69 286 l 260 286 l 260 857 z m 69 190 l 69 0 l 260 0 l 260 190 z "},"\"":{"ha":425,"x_min":0,"x_max":0,"o":"m 260 961 l 260 675 l 355 675 l 355 961 z m 69 675 l 165 675 l 165 961 l 69 961 z "},"$":{"ha":615,"x_min":0,"x_max":0,"o":"m 546 762 l 546 857 l 451 857 l 451 762 z m 355 952 l 355 1047 l 260 1047 l 260 952 l 165 952 l 165 857 l 260 857 l 260 762 l 165 762 l 165 857 l 69 857 l 69 571 l 165 571 l 165 476 l 260 476 l 260 190 l 165 190 l 165 95 l 260 95 l 260 0 l 355 0 l 355 95 l 451 95 l 451 190 l 355 190 l 355 286 l 451 286 l 451 190 l 546 190 l 546 476 l 451 476 l 451 571 l 355 571 l 355 857 l 451 857 l 451 952 z m 165 190 l 165 286 l 69 286 l 69 190 z "},"&":{"ha":901,"x_min":0,"x_max":0,"o":"m 736 666 l 736 476 l 832 476 l 832 666 z m 451 476 l 451 95 l 260 95 l 260 476 l 355 476 l 355 571 l 260 571 l 260 762 l 451 762 l 451 571 l 641 571 l 641 762 l 546 762 l 546 857 l 165 857 l 165 762 l 69 762 l 69 571 l 165 571 l 165 476 l 69 476 l 69 95 l 165 95 l 165 0 l 546 0 l 546 95 l 641 95 l 641 381 l 736 381 l 736 476 z "},"'":{"ha":235,"x_min":0,"x_max":0,"o":"m 69 961 l 69 675 l 165 675 l 165 961 z "},"(":{"ha":425,"x_min":0,"x_max":0,"o":"m 355 0 l 355 95 l 260 95 l 260 0 z m 355 762 l 355 857 l 260 857 l 260 762 z m 260 762 l 165 762 l 165 666 l 69 666 l 69 190 l 165 190 l 165 95 l 260 95 z "},")":{"ha":425,"x_min":0,"x_max":0,"o":"m 260 666 l 260 762 l 165 762 l 165 95 l 260 95 l 260 190 l 355 190 l 355 666 z m 165 0 l 165 95 l 69 95 l 69 0 z m 165 762 l 165 857 l 69 857 l 69 762 z "},"*":{"ha":425,"x_min":0,"x_max":0,"o":"m 355 675 l 355 770 l 260 770 l 260 675 z m 355 865 l 355 961 l 260 961 l 260 865 z m 260 770 l 260 865 l 165 865 l 165 770 z m 165 675 l 165 770 l 69 770 l 69 675 z m 165 865 l 165 961 l 69 961 l 69 865 z "},"+":{"ha":615,"x_min":0,"x_max":0,"o":"m 355 484 l 355 675 l 260 675 l 260 484 l 69 484 l 69 389 l 260 389 l 260 199 l 355 199 l 355 389 l 546 389 l 546 484 z "},",":{"ha":329,"x_min":0,"x_max":0,"o":"m 69 182 l 69 -8 l 165 -8 l 165 -103 l 260 -103 l 260 182 z m 165 -199 l 165 -103 l 69 -103 l 69 -199 z "},"-":{"ha":615,"x_min":0,"x_max":0,"o":"m 69 531 l 69 436 l 546 436 l 546 531 z "},".":{"ha":329,"x_min":0,"x_max":0,"o":"m 69 190 l 69 0 l 260 0 l 260 190 z "},"/":{"ha":615,"x_min":0,"x_max":0,"o":"m 546 762 l 546 857 l 451 857 l 451 762 z m 355 571 l 451 571 l 451 762 l 355 762 z m 260 381 l 355 381 l 355 571 l 260 571 z m 165 190 l 260 190 l 260 381 l 165 381 z m 69 0 l 165 0 l 165 190 l 69 190 z "},":":{"ha":329,"x_min":0,"x_max":0,"o":"m 69 655 l 69 465 l 260 465 l 260 655 z m 69 370 l 69 179 l 260 179 l 260 370 z "},";":{"ha":329,"x_min":0,"x_max":0,"o":"m 69 468 l 69 277 l 260 277 l 260 468 z m 165 -199 l 165 -103 l 69 -103 l 69 -199 z m 69 182 l 69 -8 l 165 -8 l 165 -103 l 260 -103 l 260 182 z "},"=":{"ha":615,"x_min":0,"x_max":0,"o":"m 69 604 l 69 508 l 546 508 l 546 604 z m 69 413 l 69 318 l 546 318 l 546 413 z "},"?":{"ha":711,"x_min":0,"x_max":0,"o":"m 546 762 l 546 857 l 165 857 l 165 762 l 451 762 l 451 571 l 355 571 l 355 476 l 260 476 l 260 286 l 451 286 l 451 476 l 546 476 l 546 571 l 641 571 l 641 762 z m 260 190 l 260 0 l 451 0 l 451 190 z m 165 666 l 165 762 l 69 762 l 69 666 z "},"@":{"ha":806,"x_min":0,"x_max":0,"o":"m 736 95 l 736 190 l 641 190 l 641 95 z m 641 762 l 641 381 l 736 381 l 736 762 z m 165 857 l 165 762 l 641 762 l 641 857 z m 546 666 l 355 666 l 355 571 l 451 571 l 451 381 l 355 381 l 355 571 l 260 571 l 260 286 l 641 286 l 641 381 l 546 381 z m 641 0 l 641 95 l 165 95 l 165 0 z m 69 95 l 165 95 l 165 762 l 69 762 z "},"A":{"ha":710,"x_min":0,"x_max":0,"o":"m 546 762 l 546 857 l 165 857 l 165 762 l 69 762 l 69 0 l 260 0 l 260 381 l 450 381 l 450 0 l 641 0 l 641 762 z m 260 476 l 260 762 l 450 762 l 450 476 z "},"B":{"ha":710,"x_min":0,"x_max":0,"o":"m 546 762 l 546 857 l 69 857 l 69 0 l 546 0 l 546 95 l 641 95 l 641 381 l 546 381 l 546 476 l 641 476 l 641 762 z m 450 95 l 260 95 l 260 381 l 450 381 z m 260 476 l 260 762 l 450 762 l 450 476 z "},"C":{"ha":710,"x_min":0,"x_max":0,"o":"m 641 190 l 546 190 l 546 95 l 641 95 z m 641 667 l 641 762 l 546 762 l 546 667 z m 165 857 l 165 762 l 69 762 l 69 95 l 165 95 l 165 0 l 546 0 l 546 95 l 260 95 l 260 762 l 546 762 l 546 857 z "},"D":{"ha":710,"x_min":0,"x_max":0,"o":"m 546 762 l 546 857 l 69 857 l 69 0 l 546 0 l 546 95 l 641 95 l 641 762 z m 260 95 l 260 762 l 450 762 l 450 95 z "},"E":{"ha":615,"x_min":0,"x_max":0,"o":"m 260 762 l 546 762 l 546 857 l 69 857 l 69 0 l 546 0 l 546 95 l 260 95 l 260 381 l 450 381 l 450 476 l 260 476 z "},"F":{"ha":615,"x_min":0,"x_max":0,"o":"m 69 857 l 69 0 l 260 0 l 260 381 l 450 381 l 450 476 l 260 476 l 260 762 l 546 762 l 546 857 z "},"G":{"ha":710,"x_min":0,"x_max":0,"o":"m 641 667 l 641 762 l 546 762 l 546 667 z m 165 857 l 165 762 l 69 762 l 69 95 l 165 95 l 165 0 l 546 0 l 546 95 l 641 95 l 641 476 l 355 476 l 355 381 l 450 381 l 450 95 l 260 95 l 260 762 l 546 762 l 546 857 z "},"H":{"ha":710,"x_min":0,"x_max":0,"o":"m 450 857 l 450 476 l 260 476 l 260 857 l 69 857 l 69 0 l 260 0 l 260 381 l 450 381 l 450 0 l 641 0 l 641 857 z "},"I":{"ha":329,"x_min":0,"x_max":0,"o":"m 69 857 l 69 0 l 260 0 l 260 857 z "},"J":{"ha":710,"x_min":0,"x_max":0,"o":"m 450 857 l 450 95 l 260 95 l 260 381 l 69 381 l 69 95 l 165 95 l 165 0 l 546 0 l 546 95 l 641 95 l 641 857 z "},"K":{"ha":806,"x_min":0,"x_max":0,"o":"m 450 476 l 450 571 l 546 571 l 546 667 l 641 667 l 641 762 l 736 762 l 736 857 l 546 857 l 546 762 l 450 762 l 450 667 l 355 667 l 355 571 l 260 571 l 260 857 l 69 857 l 69 0 l 260 0 l 260 286 l 355 286 l 355 190 l 450 190 l 450 95 l 546 95 l 546 0 l 736 0 l 736 95 l 641 95 l 641 190 l 546 190 l 546 286 l 450 286 l 450 381 l 355 381 l 355 476 z "},"L":{"ha":615,"x_min":0,"x_max":0,"o":"m 260 95 l 260 857 l 69 857 l 69 0 l 546 0 l 546 95 z "},"M":{"ha":1092,"x_min":0,"x_max":0,"o":"m 927 857 l 927 762 l 831 762 l 831 667 l 736 667 l 736 571 l 641 571 l 641 476 l 450 476 l 450 571 l 355 571 l 355 667 l 260 667 l 260 762 l 165 762 l 165 857 l 69 857 l 69 0 l 165 0 l 165 476 l 260 476 l 260 381 l 355 381 l 355 286 l 450 286 l 450 190 l 546 190 l 546 286 l 641 286 l 641 381 l 736 381 l 736 476 l 831 476 l 831 0 l 1022 0 l 1022 857 z "},"N":{"ha":806,"x_min":0,"x_max":0,"o":"m 641 857 l 641 381 l 546 381 l 546 476 l 450 476 l 450 571 l 355 571 l 355 667 l 260 667 l 260 762 l 165 762 l 165 857 l 69 857 l 69 0 l 165 0 l 165 476 l 260 476 l 260 381 l 355 381 l 355 286 l 450 286 l 450 190 l 546 190 l 546 95 l 641 95 l 641 0 l 736 0 l 736 857 z "},"O":{"ha":710,"x_min":0,"x_max":0,"o":"m 546 762 l 546 857 l 165 857 l 165 762 l 69 762 l 69 95 l 165 95 l 165 0 l 546 0 l 546 95 l 641 95 l 641 762 z m 260 95 l 260 762 l 450 762 l 450 95 z "},"P":{"ha":710,"x_min":0,"x_max":0,"o":"m 546 762 l 546 857 l 69 857 l 69 0 l 260 0 l 260 381 l 546 381 l 546 476 l 641 476 l 641 762 z m 260 476 l 260 762 l 450 762 l 450 476 z "},"Q":{"ha":710,"x_min":0,"x_max":0,"o":"m 546 762 l 546 857 l 165 857 l 165 762 l 69 762 l 69 95 l 165 95 l 165 0 l 450 0 l 450 -95 l 641 -95 l 641 0 l 546 0 l 546 95 l 641 95 l 641 762 z m 260 95 l 260 762 l 450 762 l 450 95 z "},"R":{"ha":710,"x_min":0,"x_max":0,"o":"m 546 762 l 546 857 l 69 857 l 69 0 l 260 0 l 260 381 l 450 381 l 450 0 l 641 0 l 641 381 l 546 381 l 546 476 l 641 476 l 641 762 z m 260 476 l 260 762 l 450 762 l 450 476 z "},"S":{"ha":615,"x_min":0,"x_max":0,"o":"m 546 667 l 546 762 l 450 762 l 450 667 z m 165 857 l 165 762 l 69 762 l 69 476 l 165 476 l 165 381 l 260 381 l 260 286 l 355 286 l 355 95 l 165 95 l 165 0 l 450 0 l 450 95 l 546 95 l 546 381 l 450 381 l 450 476 l 355 476 l 355 571 l 260 571 l 260 762 l 450 762 l 450 857 z m 69 190 l 69 95 l 165 95 l 165 190 z "},"T":{"ha":710,"x_min":0,"x_max":0,"o":"m 69 857 l 69 762 l 260 762 l 260 0 l 450 0 l 450 762 l 641 762 l 641 857 z "},"U":{"ha":710,"x_min":0,"x_max":0,"o":"m 450 857 l 450 95 l 260 95 l 260 857 l 69 857 l 69 95 l 165 95 l 165 0 l 546 0 l 546 95 l 641 95 l 641 857 z "},"V":{"ha":710,"x_min":0,"x_max":0,"o":"m 450 857 l 450 95 l 546 95 l 546 190 l 641 190 l 641 857 z m 260 95 l 260 857 l 69 857 l 69 0 l 450 0 l 450 95 z "},"W":{"ha":1092,"x_min":0,"x_max":0,"o":"m 831 857 l 831 95 l 927 95 l 927 190 l 1022 190 l 1022 857 z m 641 95 l 641 857 l 450 857 l 450 95 l 260 95 l 260 857 l 69 857 l 69 0 l 831 0 l 831 95 z "},"X":{"ha":710,"x_min":0,"x_max":0,"o":"m 450 857 l 450 476 l 260 476 l 260 857 l 69 857 l 69 476 l 165 476 l 165 381 l 69 381 l 69 0 l 260 0 l 260 381 l 450 381 l 450 0 l 641 0 l 641 381 l 546 381 l 546 476 l 641 476 l 641 857 z "},"Y":{"ha":710,"x_min":0,"x_max":0,"o":"m 450 853 l 450 472 l 260 472 l 260 853 l 69 853 l 69 472 l 165 472 l 165 377 l 260 377 l 260 -4 l 450 -4 l 450 377 l 546 377 l 546 472 l 641 472 l 641 853 z "},"Z":{"ha":710,"x_min":0,"x_max":0,"o":"m 69 853 l 69 758 l 450 758 l 450 568 l 355 568 l 355 472 l 260 472 l 260 377 l 165 377 l 165 282 l 69 282 l 69 -4 l 641 -4 l 641 91 l 260 91 l 260 282 l 355 282 l 355 377 l 450 377 l 450 472 l 546 472 l 546 568 l 641 568 l 641 853 z "},"[":{"ha":425,"x_min":0,"x_max":0,"o":"m 260 762 l 355 762 l 355 857 l 69 857 l 69 0 l 355 0 l 355 95 l 260 95 z "},"\\":{"ha":615,"x_min":0,"x_max":0,"o":"m 451 190 l 451 0 l 546 0 l 546 190 z m 451 381 l 355 381 l 355 190 l 451 190 z m 355 571 l 260 571 l 260 381 l 355 381 z m 260 762 l 165 762 l 165 571 l 260 571 z m 165 762 l 165 857 l 69 857 l 69 762 z "},"]":{"ha":425,"x_min":0,"x_max":0,"o":"m 69 857 l 69 762 l 165 762 l 165 95 l 69 95 l 69 0 l 355 0 l 355 857 z "},"_":{"ha":519,"x_min":0,"x_max":0,"o":"m 69 95 l 69 0 l 450 0 l 450 95 z "},"`":{"ha":425,"x_min":0,"x_max":0,"o":"m 355 675 l 355 770 l 260 770 l 260 675 z m 260 770 l 260 865 l 165 865 l 165 770 z m 165 865 l 165 961 l 69 961 l 69 865 z "},"a":{"ha":710,"x_min":0,"x_max":0,"o":"m 546 571 l 546 667 l 165 667 l 165 571 l 450 571 l 450 381 l 165 381 l 165 286 l 69 286 l 69 95 l 165 95 l 165 0 l 641 0 l 641 571 z m 260 95 l 260 286 l 450 286 l 450 95 z m 69 476 l 165 476 l 165 571 l 69 571 z "},"b":{"ha":710,"x_min":0,"x_max":0,"o":"m 546 571 l 546 667 l 260 667 l 260 857 l 69 857 l 69 0 l 546 0 l 546 95 l 641 95 l 641 571 z m 260 95 l 260 571 l 450 571 l 450 95 z "},"c":{"ha":615,"x_min":0,"x_max":0,"o":"m 546 190 l 450 190 l 450 95 l 546 95 z m 546 476 l 546 571 l 450 571 l 450 476 z m 165 667 l 165 571 l 69 571 l 69 95 l 165 95 l 165 0 l 450 0 l 450 95 l 260 95 l 260 571 l 450 571 l 450 667 z "},"d":{"ha":710,"x_min":0,"x_max":0,"o":"m 450 857 l 450 667 l 165 667 l 165 571 l 69 571 l 69 95 l 165 95 l 165 0 l 641 0 l 641 857 z m 260 95 l 260 571 l 450 571 l 450 95 z "},"e":{"ha":710,"x_min":0,"x_max":0,"o":"m 641 190 l 546 190 l 546 95 l 641 95 z m 546 571 l 546 667 l 165 667 l 165 571 l 69 571 l 69 95 l 165 95 l 165 0 l 546 0 l 546 95 l 260 95 l 260 286 l 641 286 l 641 571 z m 260 381 l 260 571 l 450 571 l 450 381 z "},"f":{"ha":496,"x_min":0,"x_max":0,"o":"m 200 857 l 200 762 l 105 762 l 105 667 l 10 667 l 10 571 l 105 571 l 105 0 l 295 0 l 295 571 l 391 571 l 391 667 l 295 667 l 295 762 l 486 762 l 486 857 z "},"g":{"ha":710,"x_min":0,"x_max":0,"o":"m 165 667 l 165 571 l 69 571 l 69 95 l 165 95 l 165 0 l 450 0 l 450 -190 l 165 -190 l 165 -286 l 546 -286 l 546 -190 l 641 -190 l 641 667 z m 260 95 l 260 571 l 450 571 l 450 95 z m 69 -95 l 69 -190 l 165 -190 l 165 -95 z "},"h":{"ha":710,"x_min":0,"x_max":0,"o":"m 546 571 l 546 667 l 260 667 l 260 857 l 69 857 l 69 0 l 260 0 l 260 571 l 450 571 l 450 0 l 641 0 l 641 571 z "},"i":{"ha":329,"x_min":0,"x_max":0,"o":"m 69 857 l 69 762 l 260 762 l 260 857 z m 69 667 l 69 0 l 260 0 l 260 667 z "},"j":{"ha":457,"x_min":0,"x_max":0,"o":"m 197 857 l 197 762 l 387 762 l 387 857 z m 197 667 l 197 -95 l 6 -95 l 6 -190 l 292 -190 l 292 -95 l 387 -95 l 387 667 z m -89 0 l -89 -95 l 6 -95 l 6 0 z "},"k":{"ha":710,"x_min":0,"x_max":0,"o":"m 450 381 l 450 476 l 546 476 l 546 571 l 641 571 l 641 667 l 450 667 l 450 571 l 355 571 l 355 476 l 260 476 l 260 857 l 69 857 l 69 0 l 260 0 l 260 190 l 355 190 l 355 95 l 450 95 l 450 0 l 641 0 l 641 95 l 546 95 l 546 190 l 450 190 l 450 286 l 356 286 l 356 381 z m 260 286 l 260 381 l 260 381 l 260 286 z "},"l":{"ha":329,"x_min":0,"x_max":0,"o":"m 69 857 l 69 0 l 260 0 l 260 857 z "},"m":{"ha":1092,"x_min":0,"x_max":0,"o":"m 927 571 l 927 667 l 641 667 l 641 571 l 831 571 l 831 0 l 1022 0 l 1022 571 z m 546 667 l 69 667 l 69 0 l 260 0 l 260 571 l 450 571 l 450 0 l 641 0 l 641 571 l 546 571 z "},"n":{"ha":710,"x_min":0,"x_max":0,"o":"m 546 571 l 546 667 l 69 667 l 69 0 l 260 0 l 260 571 l 450 571 l 450 0 l 641 0 l 641 571 z "},"o":{"ha":710,"x_min":0,"x_max":0,"o":"m 546 571 l 546 667 l 165 667 l 165 571 l 69 571 l 69 95 l 165 95 l 165 0 l 546 0 l 546 95 l 641 95 l 641 571 z m 260 95 l 260 571 l 450 571 l 450 95 z "},"p":{"ha":710,"x_min":0,"x_max":0,"o":"m 546 571 l 546 667 l 69 667 l 69 -190 l 260 -190 l 260 0 l 546 0 l 546 95 l 641 95 l 641 571 z m 260 95 l 260 571 l 450 571 l 450 95 z "},"q":{"ha":710,"x_min":0,"x_max":0,"o":"m 165 667 l 165 571 l 69 571 l 69 95 l 165 95 l 165 0 l 450 0 l 450 -190 l 641 -190 l 641 667 z m 260 95 l 260 571 l 450 571 l 450 95 z "},"r":{"ha":603,"x_min":0,"x_max":0,"o":"m 355 667 l 355 571 l 260 571 l 260 667 l 69 667 l 69 0 l 260 0 l 260 476 l 546 476 l 546 667 z "},"s":{"ha":615,"x_min":0,"x_max":0,"o":"m 546 476 l 546 571 l 450 571 l 450 476 z m 165 667 l 165 571 l 69 571 l 69 381 l 165 381 l 165 286 l 260 286 l 260 190 l 355 190 l 355 95 l 165 95 l 165 0 l 450 0 l 450 95 l 546 95 l 546 286 l 450 286 l 450 381 l 355 381 l 355 476 l 260 476 l 260 571 l 450 571 l 450 667 z m 69 190 l 69 95 l 165 95 l 165 190 z "},"t":{"ha":476,"x_min":0,"x_max":0,"o":"m 323 571 l 418 571 l 418 667 l 323 667 l 323 857 l 133 857 l 133 667 l 38 667 l 38 571 l 133 571 l 133 95 l 228 95 l 228 0 l 418 0 l 418 95 l 323 95 z "},"u":{"ha":710,"x_min":0,"x_max":0,"o":"m 450 667 l 450 95 l 260 95 l 260 667 l 69 667 l 69 95 l 165 95 l 165 0 l 641 0 l 641 667 z "},"v":{"ha":710,"x_min":0,"x_max":0,"o":"m 450 667 l 450 95 l 546 95 l 546 190 l 641 190 l 641 667 z m 260 95 l 260 667 l 69 667 l 69 0 l 450 0 l 450 95 z "},"w":{"ha":1092,"x_min":0,"x_max":0,"o":"m 831 667 l 831 95 l 927 95 l 927 190 l 1022 190 l 1022 667 z m 641 95 l 641 667 l 450 667 l 450 95 l 260 95 l 260 667 l 69 667 l 69 0 l 831 0 l 831 95 z "},"x":{"ha":710,"x_min":0,"x_max":0,"o":"m 450 667 l 450 381 l 641 381 l 641 667 z m 450 0 l 641 0 l 641 286 l 450 286 z m 260 381 l 260 286 l 450 286 l 450 381 z m 260 667 l 69 667 l 69 381 l 260 381 z m 69 286 l 69 0 l 260 0 l 260 286 z "},"y":{"ha":710,"x_min":0,"x_max":0,"o":"m 450 666 l 450 95 l 260 95 l 260 666 l 69 666 l 69 95 l 165 95 l 165 -1 l 450 -1 l 450 -191 l 165 -191 l 165 -286 l 546 -286 l 546 -191 l 641 -191 l 641 666 z m 69 -96 l 69 -191 l 165 -191 l 165 -96 z "},"z":{"ha":711,"x_min":0,"x_max":0,"o":"m 355 380 l 450 380 l 450 476 l 355 476 z m 260 285 l 355 285 l 355 380 l 260 380 z m 165 190 l 69 190 l 69 -1 l 641 -1 l 641 95 l 260 95 l 260 285 l 165 285 z m 641 476 l 641 571 l 641 571 l 641 666 l 69 666 l 69 571 l 450 571 l 450 476 l 546 476 l 546 571 l 546 571 l 546 476 z "},"{":{"ha":519,"x_min":0,"x_max":0,"o":"m 355 476 l 355 762 l 451 762 l 451 857 l 260 857 l 260 762 l 165 762 l 165 476 l 69 476 l 69 381 l 165 381 l 165 95 l 260 95 l 260 0 l 451 0 l 451 95 l 355 95 l 355 381 l 260 381 l 260 476 z "},"}":{"ha":519,"x_min":0,"x_max":0,"o":"m 355 476 l 355 762 l 260 762 l 260 857 l 69 857 l 69 762 l 165 762 l 165 476 l 260 476 l 260 381 l 165 381 l 165 95 l 69 95 l 69 0 l 260 0 l 260 95 l 355 95 l 355 381 l 451 381 l 451 476 z "}," ":{"ha":342,"x_min":0,"x_max":0,"o":""},"¡":{"ha":329,"x_min":0,"x_max":0,"o":"m 69 579 l 69 389 l 260 389 l 260 579 z m 69 293 l 69 -278 l 260 -278 l 260 293 z "},"§":{"ha":615,"x_min":0,"x_max":0,"o":"m 450 -103 l 546 -103 l 546 87 l 450 87 z m 546 658 l 546 753 l 450 753 l 450 658 z m 165 848 l 165 753 l 450 753 l 450 848 z m 165 -103 l 165 -199 l 450 -199 l 450 -103 z m 355 277 l 165 277 l 165 182 l 260 182 l 260 87 l 450 87 l 450 182 l 355 182 z m 165 -103 l 165 -8 l 69 -8 l 69 -103 z m 165 468 l 69 468 l 69 277 l 165 277 z m 69 563 l 165 563 l 165 468 l 355 468 l 355 373 l 450 373 l 450 182 l 546 182 l 546 468 l 450 468 l 450 563 l 260 563 l 260 658 l 165 658 l 165 753 l 69 753 z "},"©":{"ha":806,"x_min":0,"x_max":0,"o":"m 260 666 l 260 190 l 546 190 l 546 286 l 355 286 l 355 571 l 546 571 l 546 666 z m 641 761 l 641 95 l 736 95 l 736 761 z m 641 761 l 641 857 l 165 857 l 165 761 z m 165 761 l 69 761 l 69 95 l 165 95 z m 165 95 l 165 0 l 641 0 l 641 95 z "},"­":{"ha":0,"x_min":0,"x_max":0,"o":""},"·":{"ha":329,"x_min":0,"x_max":0,"o":"m 69 190 l 69 0 l 260 0 l 260 190 z "},"¿":{"ha":711,"x_min":0,"x_max":0,"o":"m 641 -183 l 641 -87 l 546 -87 l 546 -183 z m 260 -183 l 260 8 l 355 8 l 355 103 l 451 103 l 451 293 l 260 293 l 260 103 l 165 103 l 165 8 l 69 8 l 69 -183 l 165 -183 l 165 -278 l 546 -278 l 546 -183 z m 451 389 l 451 579 l 260 579 l 260 389 z "},"À":{"ha":711,"x_min":0,"x_max":0,"o":"m 546 762 l 546 857 l 165 857 l 165 762 l 69 762 l 69 0 l 260 0 l 260 381 l 451 381 l 451 0 l 641 0 l 641 762 z m 451 476 l 260 476 l 260 762 l 451 762 z m 451 952 l 451 1048 l 355 1048 l 355 952 z m 355 1048 l 355 1143 l 260 1143 l 260 1048 z "},"Á":{"ha":711,"x_min":0,"x_max":0,"o":"m 546 762 l 546 857 l 165 857 l 165 762 l 69 762 l 69 0 l 260 0 l 260 381 l 451 381 l 451 0 l 641 0 l 641 762 z m 451 476 l 260 476 l 260 762 l 451 762 z m 451 1048 l 451 1143 l 355 1143 l 355 1048 z m 355 952 l 355 1048 l 260 1048 l 260 952 z "},"Â":{"ha":711,"x_min":0,"x_max":0,"o":"m 546 762 l 546 857 l 165 857 l 165 762 l 69 762 l 69 0 l 260 0 l 260 381 l 451 381 l 451 0 l 641 0 l 641 762 z m 451 476 l 260 476 l 260 762 l 451 762 z m 546 952 l 546 1048 l 451 1048 l 451 952 z m 451 1048 l 451 1143 l 260 1143 l 260 1048 z m 260 952 l 260 1048 l 165 1048 l 165 952 z "},"Ã":{"ha":711,"x_min":0,"x_max":0,"o":"m 546 762 l 546 857 l 165 857 l 165 762 l 69 762 l 69 0 l 260 0 l 260 381 l 451 381 l 451 0 l 641 0 l 641 762 z m 451 476 l 260 476 l 260 762 l 451 762 z m 546 1048 l 546 1143 l 451 1143 l 451 1048 z m 451 952 l 451 1048 l 355 1048 l 355 952 z m 355 1048 l 355 1143 l 260 1143 l 260 1048 z m 260 952 l 260 1048 l 165 1048 l 165 952 z "},"Ä":{"ha":711,"x_min":0,"x_max":0,"o":"m 546 762 l 546 857 l 165 857 l 165 762 l 69 762 l 69 0 l 260 0 l 260 381 l 451 381 l 451 0 l 641 0 l 641 762 z m 451 476 l 260 476 l 260 762 l 451 762 z m 546 952 l 546 1048 l 451 1048 l 451 952 z m 260 952 l 260 1048 l 165 1048 l 165 952 z "},"Å":{"ha":711,"x_min":0,"x_max":0,"o":"m 546 762 l 546 857 l 451 857 l 451 952 l 260 952 l 260 857 l 165 857 l 165 762 l 69 762 l 69 0 l 260 0 l 260 381 l 451 381 l 451 0 l 641 0 l 641 762 z m 451 476 l 260 476 l 260 762 l 451 762 z m 546 952 l 546 1048 l 451 1048 l 451 952 z m 451 1048 l 451 1143 l 260 1143 l 260 1048 z m 260 952 l 260 1048 l 165 1048 l 165 952 z "},"Æ":{"ha":996,"x_min":0,"x_max":0,"o":"m 641 762 l 927 762 l 927 857 l 165 857 l 165 762 l 69 762 l 69 0 l 260 0 l 260 381 l 451 381 l 451 0 l 927 0 l 927 95 l 641 95 l 641 381 l 832 381 l 832 476 l 641 476 z m 260 476 l 260 762 l 451 762 l 451 476 z "},"Ç":{"ha":711,"x_min":0,"x_max":0,"o":"m 641 84 l 641 179 l 546 179 l 546 84 z m 641 655 l 641 750 l 546 750 l 546 655 z m 546 -202 l 546 -107 l 451 -107 l 451 -202 z m 165 846 l 165 750 l 69 750 l 69 84 l 165 84 l 165 -12 l 260 -12 l 260 -107 l 451 -107 l 451 -12 l 546 -12 l 546 84 l 260 84 l 260 750 l 546 750 l 546 846 z m 260 -202 l 260 -297 l 451 -297 l 451 -202 z "},"È":{"ha":615,"x_min":0,"x_max":0,"o":"m 355 952 l 355 1048 l 260 1048 l 260 952 z m 260 762 l 546 762 l 546 857 l 69 857 l 69 0 l 546 0 l 546 95 l 260 95 l 260 381 l 451 381 l 451 476 l 260 476 z m 260 1048 l 260 1143 l 165 1143 l 165 1048 z "},"É":{"ha":615,"x_min":0,"x_max":0,"o":"m 451 1048 l 451 1143 l 355 1143 l 355 1048 z m 355 952 l 355 1048 l 260 1048 l 260 952 z m 260 762 l 546 762 l 546 857 l 69 857 l 69 0 l 546 0 l 546 95 l 260 95 l 260 381 l 451 381 l 451 476 l 260 476 z "},"Ê":{"ha":615,"x_min":0,"x_max":0,"o":"m 451 952 l 451 1048 l 355 1048 l 355 952 z m 355 1048 l 355 1143 l 260 1143 l 260 1048 z m 260 762 l 546 762 l 546 857 l 69 857 l 69 0 l 546 0 l 546 95 l 260 95 l 260 381 l 451 381 l 451 476 l 260 476 z m 260 952 l 260 1048 l 165 1048 l 165 952 z "},"Ë":{"ha":615,"x_min":0,"x_max":0,"o":"m 451 952 l 451 1048 l 355 1048 l 355 952 z m 260 762 l 546 762 l 546 857 l 69 857 l 69 0 l 546 0 l 546 95 l 260 95 l 260 381 l 451 381 l 451 476 l 260 476 z m 260 952 l 260 1048 l 165 1048 l 165 952 z "},"Ì":{"ha":329,"x_min":0,"x_max":0,"o":"m 260 952 l 260 1048 l 165 1048 l 165 952 z m 69 857 l 69 0 l 260 0 l 260 857 z m 165 1048 l 165 1143 l 69 1143 l 69 1048 z "},"Í":{"ha":329,"x_min":0,"x_max":0,"o":"m 260 1048 l 260 1143 l 165 1143 l 165 1048 z m 69 857 l 69 0 l 260 0 l 260 857 z m 165 952 l 165 1048 l 69 1048 l 69 952 z "},"Î":{"ha":519,"x_min":0,"x_max":0,"o":"m 451 952 l 451 1048 l 355 1048 l 355 952 z m 165 1143 l 165 1048 l 355 1048 l 355 1143 z m 165 857 l 165 0 l 355 0 l 355 857 z m 165 952 l 165 1048 l 69 1048 l 69 952 z "},"Ï":{"ha":519,"x_min":0,"x_max":0,"o":"m 451 952 l 451 1048 l 355 1048 l 355 952 z m 165 857 l 165 0 l 355 0 l 355 857 z m 165 952 l 165 1048 l 69 1048 l 69 952 z "},"Ñ":{"ha":806,"x_min":0,"x_max":0,"o":"m 641 857 l 641 381 l 546 381 l 546 476 l 450 476 l 450 571 l 355 571 l 355 667 l 260 667 l 260 762 l 165 762 l 165 857 l 69 857 l 69 0 l 165 0 l 165 476 l 260 476 l 260 381 l 355 381 l 355 286 l 450 286 l 450 190 l 546 190 l 546 95 l 641 95 l 641 0 l 736 0 l 736 857 z m 641 1048 l 641 1143 l 546 1143 l 546 1048 z m 355 952 l 546 952 l 546 1048 l 450 1048 l 450 1143 l 260 1143 l 260 1048 l 355 1048 z m 260 952 l 260 1048 l 165 1048 l 165 952 z "},"Ò":{"ha":711,"x_min":0,"x_max":0,"o":"m 546 762 l 546 857 l 165 857 l 165 762 l 69 762 l 69 95 l 165 95 l 165 0 l 546 0 l 546 95 l 641 95 l 641 762 z m 451 95 l 260 95 l 260 762 l 451 762 z m 451 952 l 451 1048 l 355 1048 l 355 952 z m 355 1048 l 355 1143 l 260 1143 l 260 1048 z "},"Ó":{"ha":711,"x_min":0,"x_max":0,"o":"m 546 762 l 546 857 l 165 857 l 165 762 l 69 762 l 69 95 l 165 95 l 165 0 l 546 0 l 546 95 l 641 95 l 641 762 z m 451 95 l 260 95 l 260 762 l 451 762 z m 451 1048 l 451 1143 l 355 1143 l 355 1048 z m 355 952 l 355 1048 l 260 1048 l 260 952 z "},"Ô":{"ha":711,"x_min":0,"x_max":0,"o":"m 546 762 l 546 857 l 165 857 l 165 762 l 69 762 l 69 95 l 165 95 l 165 0 l 546 0 l 546 95 l 641 95 l 641 762 z m 451 95 l 260 95 l 260 762 l 451 762 z m 546 952 l 546 1048 l 451 1048 l 451 952 z m 451 1048 l 451 1143 l 260 1143 l 260 1048 z m 260 952 l 260 1048 l 165 1048 l 165 952 z "},"Õ":{"ha":711,"x_min":0,"x_max":0,"o":"m 546 762 l 546 857 l 165 857 l 165 762 l 69 762 l 69 95 l 165 95 l 165 0 l 546 0 l 546 95 l 641 95 l 641 762 z m 451 95 l 260 95 l 260 762 l 451 762 z m 546 1048 l 546 1143 l 451 1143 l 451 1048 z m 451 952 l 451 1048 l 355 1048 l 355 952 z m 355 1048 l 355 1143 l 260 1143 l 260 1048 z m 260 952 l 260 1048 l 165 1048 l 165 952 z "},"Ö":{"ha":711,"x_min":0,"x_max":0,"o":"m 546 762 l 546 857 l 165 857 l 165 762 l 69 762 l 69 95 l 165 95 l 165 0 l 546 0 l 546 95 l 641 95 l 641 762 z m 451 95 l 260 95 l 260 762 l 451 762 z m 546 952 l 546 1048 l 451 1048 l 451 952 z m 260 952 l 260 1048 l 165 1048 l 165 952 z "},"×":{"ha":615,"x_min":0,"x_max":0,"o":"m 546 218 l 546 313 l 451 313 l 451 218 z m 546 599 l 546 694 l 451 694 l 451 599 z m 451 313 l 451 408 l 355 408 l 355 313 z m 451 504 l 451 599 l 355 599 l 355 504 z m 355 408 l 355 504 l 260 504 l 260 408 z m 260 313 l 260 408 l 165 408 l 165 313 z m 260 504 l 260 599 l 165 599 l 165 504 z m 165 218 l 165 313 l 69 313 l 69 218 z m 165 599 l 165 694 l 69 694 l 69 599 z "},"Ø":{"ha":901,"x_min":0,"x_max":0,"o":"m 736 857 l 736 762 l 641 762 l 641 857 l 260 857 l 260 762 l 165 762 l 165 190 l 69 190 l 69 0 l 165 0 l 165 95 l 260 95 l 260 0 l 641 0 l 641 95 l 736 95 l 736 667 l 832 667 l 832 857 z m 546 762 l 546 571 l 451 571 l 451 476 l 355 476 l 355 762 z m 355 95 l 355 286 l 451 286 l 451 381 l 546 381 l 546 95 z "},"Ù":{"ha":711,"x_min":0,"x_max":0,"o":"m 451 762 l 451 95 l 260 95 l 260 762 l 69 762 l 69 95 l 165 95 l 165 0 l 546 0 l 546 95 l 641 95 l 641 762 z m 451 857 l 451 952 l 355 952 l 355 857 z m 355 952 l 355 1048 l 260 1048 l 260 952 z "},"Ú":{"ha":711,"x_min":0,"x_max":0,"o":"m 451 762 l 451 95 l 260 95 l 260 762 l 69 762 l 69 95 l 165 95 l 165 0 l 546 0 l 546 95 l 641 95 l 641 762 z m 451 952 l 451 1048 l 355 1048 l 355 952 z m 355 857 l 355 952 l 260 952 l 260 857 z "},"Û":{"ha":711,"x_min":0,"x_max":0,"o":"m 451 762 l 451 95 l 260 95 l 260 762 l 69 762 l 69 95 l 165 95 l 165 0 l 546 0 l 546 95 l 641 95 l 641 762 z m 546 857 l 546 952 l 451 952 l 451 857 z m 451 952 l 451 1048 l 260 1048 l 260 952 z m 260 857 l 260 952 l 165 952 l 165 857 z "},"Ü":{"ha":711,"x_min":0,"x_max":0,"o":"m 451 762 l 451 95 l 260 95 l 260 762 l 69 762 l 69 95 l 165 95 l 165 0 l 546 0 l 546 95 l 641 95 l 641 762 z m 546 857 l 546 952 l 451 952 l 451 857 z m 260 857 l 260 952 l 165 952 l 165 857 z "},"Ý":{"ha":711,"x_min":0,"x_max":0,"o":"m 451 762 l 451 381 l 260 381 l 260 762 l 69 762 l 69 381 l 165 381 l 165 286 l 260 286 l 260 0 l 451 0 l 451 286 l 546 286 l 546 381 l 641 381 l 641 762 z m 451 952 l 451 1048 l 355 1048 l 355 952 z m 355 857 l 355 952 l 260 952 l 260 857 z "},"Þ":{"ha":711,"x_min":0,"x_max":0,"o":"m 546 552 l 546 647 l 260 647 l 260 838 l 69 838 l 69 -19 l 260 -19 l 260 171 l 546 171 l 546 266 l 641 266 l 641 552 z m 260 266 l 260 552 l 451 552 l 451 266 z "},"ß":{"ha":711,"x_min":0,"x_max":0,"o":"m 260 468 l 260 754 l 69 754 l 69 -199 l 260 -199 l 260 -8 l 546 -8 l 546 87 l 641 87 l 641 373 l 451 373 l 451 87 l 260 87 l 260 373 l 451 373 l 451 468 z m 546 754 l 546 850 l 69 850 l 69 754 z m 546 754 l 546 659 l 546 659 l 546 754 l 451 754 l 451 468 l 641 468 l 641 659 l 642 659 l 642 754 z "},"à":{"ha":711,"x_min":0,"x_max":0,"o":"m 546 571 l 546 667 l 165 667 l 165 571 l 451 571 l 451 381 l 165 381 l 165 286 l 69 286 l 69 95 l 165 95 l 165 0 l 641 0 l 641 571 z m 451 95 l 260 95 l 260 286 l 451 286 z m 451 762 l 451 857 l 355 857 l 355 762 z m 355 857 l 355 952 l 260 952 l 260 857 z m 165 476 l 165 571 l 69 571 l 69 476 z "},"â":{"ha":711,"x_min":0,"x_max":0,"o":"m 546 571 l 546 667 l 165 667 l 165 571 l 451 571 l 451 381 l 165 381 l 165 286 l 69 286 l 69 95 l 165 95 l 165 0 l 641 0 l 641 571 z m 451 95 l 260 95 l 260 286 l 451 286 z m 546 762 l 546 857 l 451 857 l 451 762 z m 451 857 l 451 952 l 260 952 l 260 857 z m 260 762 l 260 857 l 165 857 l 165 762 z m 165 476 l 165 571 l 69 571 l 69 476 z "},"ã":{"ha":711,"x_min":0,"x_max":0,"o":"m 546 571 l 546 667 l 165 667 l 165 571 l 451 571 l 451 381 l 165 381 l 165 286 l 69 286 l 69 95 l 165 95 l 165 0 l 641 0 l 641 571 z m 451 95 l 260 95 l 260 286 l 451 286 z m 546 857 l 546 952 l 451 952 l 451 857 z m 451 762 l 451 857 l 355 857 l 355 762 z m 355 857 l 355 952 l 260 952 l 260 857 z m 260 762 l 260 857 l 165 857 l 165 762 z m 165 476 l 165 571 l 69 571 l 69 476 z "},"ä":{"ha":711,"x_min":0,"x_max":0,"o":"m 546 571 l 546 667 l 165 667 l 165 571 l 451 571 l 451 381 l 165 381 l 165 286 l 69 286 l 69 95 l 165 95 l 165 0 l 641 0 l 641 571 z m 451 95 l 260 95 l 260 286 l 451 286 z m 546 762 l 546 857 l 451 857 l 451 762 z m 260 762 l 260 857 l 165 857 l 165 762 z m 165 476 l 165 571 l 69 571 l 69 476 z "},"å":{"ha":711,"x_min":0,"x_max":0,"o":"m 546 571 l 546 667 l 451 667 l 451 762 l 260 762 l 260 667 l 165 667 l 165 571 l 451 571 l 451 381 l 165 381 l 165 286 l 69 286 l 69 95 l 165 95 l 165 0 l 641 0 l 641 571 z m 451 95 l 260 95 l 260 286 l 451 286 z m 546 762 l 546 857 l 451 857 l 451 762 z m 451 857 l 451 952 l 260 952 l 260 857 z m 260 762 l 260 857 l 165 857 l 165 762 z m 165 476 l 165 571 l 69 571 l 69 476 z "},"æ":{"ha":1092,"x_min":0,"x_max":0,"o":"m 1022 95 l 1022 190 l 927 190 l 927 95 z m 927 571 l 927 667 l 165 667 l 165 571 l 451 571 l 451 381 l 165 381 l 165 286 l 69 286 l 69 95 l 165 95 l 165 0 l 927 0 l 927 95 l 641 95 l 641 286 l 1022 286 l 1022 571 z m 451 95 l 260 95 l 260 286 l 451 286 z m 832 381 l 641 381 l 641 571 l 832 571 z m 165 476 l 165 571 l 69 571 l 69 476 z "},"ç":{"ha":615,"x_min":0,"x_max":0,"o":"m 546 84 l 546 179 l 451 179 l 451 84 z m 546 465 l 546 560 l 451 560 l 451 465 z m 451 -202 l 451 -107 l 355 -107 l 355 -202 z m 165 655 l 165 560 l 69 560 l 69 84 l 165 84 l 165 -12 l 260 -12 l 260 -107 l 355 -107 l 355 -12 l 451 -12 l 451 84 l 260 84 l 260 560 l 451 560 l 451 655 z m 355 -297 l 355 -202 l 260 -202 l 260 -297 z "},"è":{"ha":711,"x_min":0,"x_max":0,"o":"m 641 95 l 641 190 l 546 190 l 546 95 z m 546 571 l 546 667 l 165 667 l 165 571 l 69 571 l 69 95 l 165 95 l 165 0 l 546 0 l 546 95 l 260 95 l 260 286 l 641 286 l 641 571 z m 451 381 l 260 381 l 260 571 l 451 571 z m 451 762 l 451 857 l 355 857 l 355 762 z m 355 857 l 355 952 l 260 952 l 260 857 z "},"é":{"ha":711,"x_min":0,"x_max":0,"o":"m 641 95 l 641 190 l 546 190 l 546 95 z m 546 571 l 546 667 l 165 667 l 165 571 l 69 571 l 69 95 l 165 95 l 165 0 l 546 0 l 546 95 l 260 95 l 260 286 l 641 286 l 641 571 z m 451 381 l 260 381 l 260 571 l 451 571 z m 451 857 l 451 952 l 355 952 l 355 857 z m 355 762 l 355 857 l 260 857 l 260 762 z "},"ê":{"ha":711,"x_min":0,"x_max":0,"o":"m 641 95 l 641 190 l 546 190 l 546 95 z m 546 571 l 546 667 l 165 667 l 165 571 l 69 571 l 69 95 l 165 95 l 165 0 l 546 0 l 546 95 l 260 95 l 260 286 l 641 286 l 641 571 z m 451 381 l 260 381 l 260 571 l 451 571 z m 546 762 l 546 857 l 451 857 l 451 762 z m 451 857 l 451 952 l 260 952 l 260 857 z m 260 762 l 260 857 l 165 857 l 165 762 z "},"ë":{"ha":711,"x_min":0,"x_max":0,"o":"m 641 95 l 641 190 l 546 190 l 546 95 z m 546 571 l 546 667 l 165 667 l 165 571 l 69 571 l 69 95 l 165 95 l 165 0 l 546 0 l 546 95 l 260 95 l 260 286 l 641 286 l 641 571 z m 451 381 l 260 381 l 260 571 l 451 571 z m 546 762 l 546 857 l 451 857 l 451 762 z m 260 762 l 260 857 l 165 857 l 165 762 z "},"ì":{"ha":329,"x_min":0,"x_max":0,"o":"m 260 762 l 260 857 l 165 857 l 165 762 z m 69 667 l 69 0 l 260 0 l 260 667 z m 165 857 l 165 952 l 69 952 l 69 857 z "},"î":{"ha":519,"x_min":0,"x_max":0,"o":"m 451 762 l 451 857 l 355 857 l 355 762 z m 165 952 l 165 857 l 355 857 l 355 952 z m 165 667 l 165 0 l 355 0 l 355 667 z m 165 762 l 165 857 l 69 857 l 69 762 z "},"ï":{"ha":519,"x_min":0,"x_max":0,"o":"m 451 762 l 451 857 l 355 857 l 355 762 z m 165 667 l 165 0 l 355 0 l 355 667 z m 165 762 l 165 857 l 69 857 l 69 762 z "},"ð":{"ha":711,"x_min":0,"x_max":0,"o":"m 546 571 l 546 667 l 451 667 l 451 571 l 165 571 l 165 476 l 69 476 l 69 95 l 165 95 l 165 0 l 546 0 l 546 95 l 641 95 l 641 571 z m 451 95 l 260 95 l 260 476 l 451 476 z m 451 667 l 451 762 l 355 762 l 355 667 z m 451 857 l 451 952 l 355 952 l 355 857 z m 355 762 l 355 857 l 260 857 l 260 762 z m 260 667 l 260 762 l 165 762 l 165 667 z m 260 857 l 260 952 l 165 952 l 165 857 z "},"ñ":{"ha":711,"x_min":0,"x_max":0,"o":"m 546 571 l 546 667 l 69 667 l 69 0 l 260 0 l 260 571 l 451 571 l 451 0 l 641 0 l 641 571 z m 546 857 l 546 952 l 451 952 l 451 857 z m 451 762 l 451 857 l 355 857 l 355 762 z m 355 857 l 355 952 l 260 952 l 260 857 z m 260 762 l 260 857 l 165 857 l 165 762 z "},"ò":{"ha":711,"x_min":0,"x_max":0,"o":"m 546 571 l 546 667 l 165 667 l 165 571 l 69 571 l 69 95 l 165 95 l 165 0 l 546 0 l 546 95 l 641 95 l 641 571 z m 451 95 l 260 95 l 260 571 l 451 571 z m 451 762 l 451 857 l 355 857 l 355 762 z m 355 857 l 355 952 l 260 952 l 260 857 z "},"ó":{"ha":711,"x_min":0,"x_max":0,"o":"m 546 571 l 546 667 l 165 667 l 165 571 l 69 571 l 69 95 l 165 95 l 165 0 l 546 0 l 546 95 l 641 95 l 641 571 z m 451 95 l 260 95 l 260 571 l 451 571 z m 451 857 l 451 952 l 355 952 l 355 857 z m 355 762 l 355 857 l 260 857 l 260 762 z "},"ô":{"ha":711,"x_min":0,"x_max":0,"o":"m 546 571 l 546 667 l 165 667 l 165 571 l 69 571 l 69 95 l 165 95 l 165 0 l 546 0 l 546 95 l 641 95 l 641 571 z m 451 95 l 260 95 l 260 571 l 451 571 z m 546 762 l 546 857 l 451 857 l 451 762 z m 451 857 l 451 952 l 260 952 l 260 857 z m 260 762 l 260 857 l 165 857 l 165 762 z "},"õ":{"ha":711,"x_min":0,"x_max":0,"o":"m 546 571 l 546 667 l 165 667 l 165 571 l 69 571 l 69 95 l 165 95 l 165 0 l 546 0 l 546 95 l 641 95 l 641 571 z m 450 95 l 260 95 l 260 571 l 450 571 z m 546 857 l 546 952 l 450 952 l 450 857 z m 450 762 l 450 857 l 355 857 l 355 762 z m 355 857 l 355 952 l 260 952 l 260 857 z m 260 762 l 260 857 l 165 857 l 165 762 z "},"ö":{"ha":711,"x_min":0,"x_max":0,"o":"m 546 571 l 546 667 l 165 667 l 165 571 l 69 571 l 69 95 l 165 95 l 165 0 l 546 0 l 546 95 l 641 95 l 641 571 z m 451 95 l 260 95 l 260 571 l 451 571 z m 546 762 l 546 857 l 451 857 l 451 762 z m 260 762 l 260 857 l 165 857 l 165 762 z "},"÷":{"ha":615,"x_min":0,"x_max":0,"o":"m 69 523 l 69 428 l 546 428 l 546 523 z m 355 238 l 355 333 l 260 333 l 260 238 z m 355 618 l 355 713 l 260 713 l 260 618 z "},"ø":{"ha":901,"x_min":0,"x_max":0,"o":"m 832 571 l 832 667 l 736 667 l 736 571 z m 641 667 l 260 667 l 260 571 l 165 571 l 165 95 l 260 95 l 260 0 l 641 0 l 641 95 l 736 95 l 736 571 l 641 571 z m 546 95 l 355 95 l 355 190 l 451 190 l 451 286 l 546 286 z m 546 476 l 451 476 l 451 381 l 355 381 l 355 571 l 546 571 z m 165 0 l 165 95 l 69 95 l 69 0 z "},"ù":{"ha":711,"x_min":0,"x_max":0,"o":"m 451 762 l 451 857 l 355 857 l 355 762 z m 355 857 l 355 952 l 260 952 l 260 857 z m 451 667 l 451 95 l 260 95 l 260 667 l 69 667 l 69 95 l 165 95 l 165 0 l 641 0 l 641 667 z "},"ú":{"ha":711,"x_min":0,"x_max":0,"o":"m 451 857 l 451 952 l 355 952 l 355 857 z m 355 762 l 355 857 l 260 857 l 260 762 z m 451 667 l 451 95 l 260 95 l 260 667 l 69 667 l 69 95 l 165 95 l 165 0 l 641 0 l 641 667 z "},"û":{"ha":711,"x_min":0,"x_max":0,"o":"m 546 762 l 546 857 l 451 857 l 451 762 z m 451 857 l 451 952 l 260 952 l 260 857 z m 260 762 l 260 857 l 165 857 l 165 762 z m 451 667 l 451 95 l 260 95 l 260 667 l 69 667 l 69 95 l 165 95 l 165 0 l 641 0 l 641 667 z "},"ü":{"ha":711,"x_min":0,"x_max":0,"o":"m 546 762 l 546 857 l 450 857 l 450 762 z m 260 762 l 260 857 l 165 857 l 165 762 z m 450 667 l 450 95 l 260 95 l 260 667 l 69 667 l 69 95 l 165 95 l 165 0 l 641 0 l 641 667 z "},"ý":{"ha":711,"x_min":0,"x_max":0,"o":"m 451 846 l 451 941 l 355 941 l 355 846 z m 355 750 l 355 846 l 260 846 l 260 750 z m 165 -202 l 165 -107 l 69 -107 l 69 -202 z m 451 655 l 451 84 l 260 84 l 260 655 l 69 655 l 69 84 l 165 84 l 165 -11 l 451 -11 l 451 -202 l 165 -202 l 165 -297 l 546 -297 l 546 -202 l 641 -202 l 641 655 z "},"þ":{"ha":711,"x_min":0,"x_max":0,"o":"m 69 95 l 69 0 l 260 0 l 260 95 z m 260 953 l 260 1049 l 69 1049 l 69 953 z m 260 953 l 69 953 l 69 96 l 260 96 l 260 191 l 354 191 l 354 286 l 260 286 l 260 763 l 354 763 l 354 858 l 260 858 z m 450 763 l 450 858 l 355 858 l 355 763 z m 641 668 l 641 763 l 546 763 l 546 762 l 450 762 l 450 286 l 546 286 l 546 286 l 450 286 l 450 191 l 546 191 l 546 285 l 641 285 l 641 380 l 546 380 l 546 382 l 641 382 l 641 667 l 546 667 l 546 668 z m 450 191 l 450 286 l 355 286 l 355 191 z m 546 763 l 546 858 l 450 858 l 450 763 z "},"Ă":{"ha":711,"x_min":0,"x_max":0,"o":"m 546 762 l 546 857 l 165 857 l 165 762 l 69 762 l 69 0 l 260 0 l 260 381 l 451 381 l 451 0 l 641 0 l 641 762 z m 451 476 l 260 476 l 260 762 l 451 762 z m 546 1048 l 546 1143 l 451 1143 l 451 1048 z m 451 952 l 451 1048 l 260 1048 l 260 952 z m 260 1048 l 260 1143 l 165 1143 l 165 1048 z "},"ă":{"ha":711,"x_min":0,"x_max":0,"o":"m 546 571 l 546 667 l 165 667 l 165 571 l 451 571 l 451 381 l 165 381 l 165 286 l 69 286 l 69 95 l 165 95 l 165 0 l 641 0 l 641 571 z m 451 95 l 260 95 l 260 286 l 451 286 z m 546 857 l 546 952 l 451 952 l 451 857 z m 451 762 l 451 857 l 260 857 l 260 762 z m 260 857 l 260 952 l 165 952 l 165 857 z m 165 476 l 165 571 l 69 571 l 69 476 z "},"Đ":{"ha":806,"x_min":0,"x_max":0,"o":"m 641 762 l 641 857 l 165 857 l 165 476 l 69 476 l 69 381 l 165 381 l 165 0 l 641 0 l 641 95 l 736 95 l 736 762 z m 355 95 l 355 381 l 451 381 l 451 476 l 355 476 l 355 762 l 546 762 l 546 95 z "},"Œ":{"ha":996,"x_min":0,"x_max":0,"o":"m 641 762 l 927 762 l 927 857 l 165 857 l 165 762 l 69 762 l 69 95 l 165 95 l 165 0 l 927 0 l 927 95 l 641 95 l 641 381 l 832 381 l 832 476 l 641 476 z m 260 95 l 260 762 l 450 762 l 450 95 z "},"œ":{"ha":1092,"x_min":0,"x_max":0,"o":"m 1022 95 l 1022 190 l 927 190 l 927 95 z m 927 571 l 927 667 l 165 667 l 165 571 l 69 571 l 69 95 l 165 95 l 165 0 l 927 0 l 927 95 l 641 95 l 641 286 l 1022 286 l 1022 571 z m 451 95 l 260 95 l 260 571 l 451 571 z m 832 381 l 641 381 l 641 571 l 832 571 z "},"ẞ":{"ha":711,"x_min":0,"x_max":0,"o":"m 546 762 l 546 857 l 69 857 l 69 0 l 260 0 l 260 476 l 451 476 l 451 571 l 260 571 l 260 762 l 451 762 l 451 571 l 641 571 l 641 762 z m 451 190 l 355 190 l 355 95 l 546 95 l 546 190 l 641 190 l 641 476 l 451 476 z "},"ẽ":{"ha":711,"x_min":0,"x_max":0,"o":"m 641 95 l 641 190 l 546 190 l 546 95 z m 546 571 l 546 667 l 165 667 l 165 571 l 69 571 l 69 95 l 165 95 l 165 0 l 546 0 l 546 95 l 260 95 l 260 286 l 641 286 l 641 571 z m 451 381 l 260 381 l 260 571 l 451 571 z m 546 857 l 546 952 l 451 952 l 451 857 z m 451 762 l 451 857 l 355 857 l 355 762 z m 355 857 l 355 952 l 260 952 l 260 857 z m 260 762 l 260 857 l 165 857 l 165 762 z "},"—":{"ha":806,"x_min":0,"x_max":0,"o":"m 69 512 l 69 417 l 736 417 l 736 512 z "},"€":{"ha":711,"x_min":0,"x_max":0,"o":"m 641 95 l 641 190 l 546 190 l 546 95 z m 641 666 l 641 762 l 546 762 l 546 666 z m 260 857 l 260 762 l 546 762 l 546 857 z m 546 0 l 546 95 l 260 95 l 260 0 z m 165 571 l 69 571 l 69 476 l 165 476 l 165 381 l 69 381 l 69 286 l 165 286 l 165 95 l 260 95 l 260 286 l 450 286 l 450 381 l 260 381 l 260 476 l 450 476 l 450 571 l 260 571 l 260 762 l 165 762 z "},"":{"ha":901,"x_min":0,"x_max":0,"o":"m 641 190 l 641 0 l 832 0 l 832 190 z m 355 190 l 355 0 l 546 0 l 546 190 z m 69 190 l 69 0 l 260 0 l 260 190 z "}}}
